<svg width="132" height="172" viewBox="0 0 132 172" fill="none" xmlns="http://www.w3.org/2000/svg">
<g filter="url(#filter0_d_28_1675)">
<g clip-path="url(#clip0_28_1675)">
<rect y="5" width="123" height="167" rx="8" fill="white"/>
<rect y="5" width="123" height="169" rx="8" fill="#C67C4E"/>
<g filter="url(#filter1_d_28_1675)">
<path d="M0 105H123V166C123 170.418 119.418 174 115 174H8C3.58172 174 0 170.418 0 166V105Z" fill="white"/>
</g>
<path d="M19.8821 140.32C18.6605 140.315 17.6094 140.014 16.7287 139.418C15.8527 138.821 15.178 137.957 14.7045 136.825C14.2358 135.694 14.0038 134.332 14.0085 132.741C14.0085 131.155 14.2429 129.804 14.7116 128.686C15.1851 127.569 15.8598 126.719 16.7358 126.136C17.6165 125.549 18.6652 125.256 19.8821 125.256C21.099 125.256 22.1454 125.549 23.0213 126.136C23.902 126.723 24.5791 127.576 25.0526 128.693C25.526 129.806 25.7604 131.155 25.7557 132.741C25.7557 134.337 25.5189 135.701 25.0455 136.832C24.5767 137.964 23.9044 138.828 23.0284 139.425C22.1525 140.021 21.1037 140.32 19.8821 140.32ZM19.8821 137.77C20.7154 137.77 21.3807 137.351 21.8778 136.513C22.375 135.675 22.6212 134.418 22.6165 132.741C22.6165 131.638 22.5028 130.72 22.2756 129.986C22.053 129.252 21.7358 128.7 21.3239 128.331C20.9167 127.962 20.4361 127.777 19.8821 127.777C19.0535 127.777 18.3906 128.191 17.8935 129.02C17.3963 129.848 17.1454 131.089 17.1406 132.741C17.1406 133.859 17.2519 134.792 17.4744 135.54C17.7017 136.283 18.0213 136.842 18.4332 137.216C18.8452 137.585 19.3281 137.77 19.8821 137.77ZM34.2766 125.455V140H31.2013V128.374H31.1161L27.7852 130.462V127.734L31.386 125.455H34.2766Z" fill="#313131"/>
<path d="M20.896 151.504L20.452 153.58H22.036V154.78H20.2L19.72 157H18.412L18.892 154.78H16.54L16.06 157H14.752L15.232 154.78H13.372V153.58H15.484L15.928 151.504H14.08V150.304H16.18L16.648 148.12H17.956L17.488 150.304H19.84L20.308 148.12H21.616L21.148 150.304H22.744V151.504H20.896ZM19.588 151.504H17.236L16.792 153.58H19.144L19.588 151.504ZM23.9088 152.812C23.9088 151.996 24.0968 151.264 24.4728 150.616C24.8568 149.968 25.3728 149.464 26.0208 149.104C26.6768 148.736 27.3928 148.552 28.1688 148.552C29.0568 148.552 29.8448 148.772 30.5328 149.212C31.2288 149.644 31.7328 150.26 32.0448 151.06H30.4008C30.1848 150.62 29.8848 150.292 29.5008 150.076C29.1168 149.86 28.6728 149.752 28.1688 149.752C27.6168 149.752 27.1248 149.876 26.6928 150.124C26.2608 150.372 25.9208 150.728 25.6728 151.192C25.4328 151.656 25.3128 152.196 25.3128 152.812C25.3128 153.428 25.4328 153.968 25.6728 154.432C25.9208 154.896 26.2608 155.256 26.6928 155.512C27.1248 155.76 27.6168 155.884 28.1688 155.884C28.6728 155.884 29.1168 155.776 29.5008 155.56C29.8848 155.344 30.1848 155.016 30.4008 154.576H32.0448C31.7328 155.376 31.2288 155.992 30.5328 156.424C29.8448 156.856 29.0568 157.072 28.1688 157.072C27.3848 157.072 26.6688 156.892 26.0208 156.532C25.3728 156.164 24.8568 155.656 24.4728 155.008C24.0968 154.36 23.9088 153.628 23.9088 152.812ZM38.1701 150.28C38.0821 149.912 37.9221 149.636 37.6901 149.452C37.4581 149.268 37.1341 149.176 36.7181 149.176C36.0861 149.176 35.6141 149.42 35.3021 149.908C34.9901 150.388 34.8261 151.188 34.8101 152.308C35.0181 151.956 35.3221 151.684 35.7221 151.492C36.1221 151.3 36.5541 151.204 37.0181 151.204C37.5461 151.204 38.0101 151.32 38.4101 151.552C38.8181 151.776 39.1341 152.104 39.3581 152.536C39.5901 152.968 39.7061 153.484 39.7061 154.084C39.7061 154.644 39.5941 155.144 39.3701 155.584C39.1541 156.024 38.8301 156.372 38.3981 156.628C37.9661 156.876 37.4461 157 36.8381 157C36.0141 157 35.3661 156.82 34.8941 156.46C34.4301 156.092 34.1021 155.576 33.9101 154.912C33.7261 154.248 33.6341 153.42 33.6341 152.428C33.6341 149.5 34.6661 148.036 36.7301 148.036C37.5301 148.036 38.1581 148.252 38.6141 148.684C39.0781 149.116 39.3501 149.648 39.4301 150.28H38.1701ZM36.7181 152.356C36.2301 152.356 35.8141 152.504 35.4701 152.8C35.1341 153.088 34.9661 153.508 34.9661 154.06C34.9661 154.612 35.1221 155.052 35.4341 155.38C35.7541 155.7 36.1981 155.86 36.7661 155.86C37.2701 155.86 37.6661 155.704 37.9541 155.392C38.2501 155.08 38.3981 154.664 38.3981 154.144C38.3981 153.6 38.2541 153.168 37.9661 152.848C37.6861 152.52 37.2701 152.356 36.7181 152.356ZM46.7093 149.308L43.3733 157H41.9933L45.3653 149.452H40.9253V148.288H46.7093V149.308ZM47.6042 152.812C47.6042 151.996 47.7922 151.264 48.1682 150.616C48.5522 149.968 49.0682 149.464 49.7162 149.104C50.3722 148.736 51.0882 148.552 51.8642 148.552C52.7522 148.552 53.5402 148.772 54.2282 149.212C54.9242 149.644 55.4282 150.26 55.7402 151.06H54.0962C53.8802 150.62 53.5802 150.292 53.1962 150.076C52.8122 149.86 52.3682 149.752 51.8642 149.752C51.3122 149.752 50.8202 149.876 50.3882 150.124C49.9562 150.372 49.6162 150.728 49.3682 151.192C49.1282 151.656 49.0082 152.196 49.0082 152.812C49.0082 153.428 49.1282 153.968 49.3682 154.432C49.6162 154.896 49.9562 155.256 50.3882 155.512C50.8202 155.76 51.3122 155.884 51.8642 155.884C52.3682 155.884 52.8122 155.776 53.1962 155.56C53.5802 155.344 53.8802 155.016 54.0962 154.576H55.7402C55.4282 155.376 54.9242 155.992 54.2282 156.424C53.5402 156.856 52.7522 157.072 51.8642 157.072C51.0802 157.072 50.3642 156.892 49.7162 156.532C49.0682 156.164 48.5522 155.656 48.1682 155.008C47.7922 154.36 47.6042 153.628 47.6042 152.812ZM56.9934 155.176V154.144L61.0254 148.36H62.6814V153.988H63.7974V155.176H62.6814V157H61.3374V155.176H56.9934ZM61.3974 149.752L58.5654 153.988H61.3974V149.752ZM66.4789 149.764V152.212H69.3589V153.328H66.4789V155.884H69.7189V157H65.1109V148.648H69.7189V149.764H66.4789Z" fill="#999999"/>
</g>
</g>
<defs>
<filter id="filter0_d_28_1675" x="-9" y="0" width="141" height="185" filterUnits="userSpaceOnUse" color-interpolation-filters="sRGB">
<feFlood flood-opacity="0" result="BackgroundImageFix"/>
<feColorMatrix in="SourceAlpha" type="matrix" values="0 0 0 0 0 0 0 0 0 0 0 0 0 0 0 0 0 0 127 0" result="hardAlpha"/>
<feMorphology radius="1" operator="dilate" in="SourceAlpha" result="effect1_dropShadow_28_1675"/>
<feOffset dy="4"/>
<feGaussianBlur stdDeviation="4"/>
<feComposite in2="hardAlpha" operator="out"/>
<feColorMatrix type="matrix" values="0 0 0 0 0.416667 0 0 0 0 0.416667 0 0 0 0 0.416667 0 0 0 0.25 0"/>
<feBlend mode="normal" in2="BackgroundImageFix" result="effect1_dropShadow_28_1675"/>
<feBlend mode="normal" in="SourceGraphic" in2="effect1_dropShadow_28_1675" result="shape"/>
</filter>
<filter id="filter1_d_28_1675" x="-8" y="101" width="139" height="85" filterUnits="userSpaceOnUse" color-interpolation-filters="sRGB">
<feFlood flood-opacity="0" result="BackgroundImageFix"/>
<feColorMatrix in="SourceAlpha" type="matrix" values="0 0 0 0 0 0 0 0 0 0 0 0 0 0 0 0 0 0 127 0" result="hardAlpha"/>
<feOffset dy="4"/>
<feGaussianBlur stdDeviation="4"/>
<feComposite in2="hardAlpha" operator="out"/>
<feColorMatrix type="matrix" values="0 0 0 0 0 0 0 0 0 0 0 0 0 0 0 0 0 0 0.25 0"/>
<feBlend mode="normal" in2="BackgroundImageFix" result="effect1_dropShadow_28_1675"/>
<feBlend mode="normal" in="SourceGraphic" in2="effect1_dropShadow_28_1675" result="shape"/>
</filter>
<clipPath id="clip0_28_1675">
<rect y="5" width="123" height="167" rx="8" fill="white"/>
</clipPath>
</defs>
</svg>
