<svg width="132" height="172" viewBox="0 0 132 172" fill="none" xmlns="http://www.w3.org/2000/svg">
<g filter="url(#filter0_d_28_1678)">
<g clip-path="url(#clip0_28_1678)">
<rect y="5" width="123" height="167" rx="8" fill="white"/>
<rect y="5" width="123" height="169" rx="8" fill="#4E5B47"/>
<g filter="url(#filter1_d_28_1678)">
<path d="M0 105H123V166C123 170.418 119.418 174 115 174H8C3.58172 174 0 170.418 0 166V105Z" fill="white"/>
</g>
<path d="M19.8821 140.32C18.6605 140.315 17.6094 140.014 16.7287 139.418C15.8527 138.821 15.178 137.957 14.7045 136.825C14.2358 135.694 14.0038 134.332 14.0085 132.741C14.0085 131.155 14.2429 129.804 14.7116 128.686C15.1851 127.569 15.8598 126.719 16.7358 126.136C17.6165 125.549 18.6652 125.256 19.8821 125.256C21.099 125.256 22.1454 125.549 23.0213 126.136C23.902 126.723 24.5791 127.576 25.0526 128.693C25.526 129.806 25.7604 131.155 25.7557 132.741C25.7557 134.337 25.5189 135.701 25.0455 136.832C24.5767 137.964 23.9044 138.828 23.0284 139.425C22.1525 140.021 21.1037 140.32 19.8821 140.32ZM19.8821 137.77C20.7154 137.77 21.3807 137.351 21.8778 136.513C22.375 135.675 22.6212 134.418 22.6165 132.741C22.6165 131.638 22.5028 130.72 22.2756 129.986C22.053 129.252 21.7358 128.7 21.3239 128.331C20.9167 127.962 20.4361 127.777 19.8821 127.777C19.0535 127.777 18.3906 128.191 17.8935 129.02C17.3963 129.848 17.1454 131.089 17.1406 132.741C17.1406 133.859 17.2519 134.792 17.4744 135.54C17.7017 136.283 18.0213 136.842 18.4332 137.216C18.8452 137.585 19.3281 137.77 19.8821 137.77ZM27.9485 140V137.784L33.1261 132.99C33.5664 132.564 33.9357 132.18 34.234 131.839C34.5371 131.499 34.7667 131.165 34.9229 130.838C35.0792 130.507 35.1573 130.149 35.1573 129.766C35.1573 129.339 35.0603 128.973 34.8661 128.665C34.672 128.352 34.4068 128.113 34.0707 127.947C33.7345 127.777 33.3533 127.692 32.9272 127.692C32.4821 127.692 32.0939 127.782 31.7624 127.962C31.431 128.142 31.1753 128.4 30.9954 128.736C30.8155 129.072 30.7255 129.472 30.7255 129.936H27.8065C27.8065 128.984 28.0219 128.158 28.4528 127.457C28.8836 126.757 29.4873 126.214 30.2638 125.831C31.0404 125.447 31.9353 125.256 32.9485 125.256C33.9902 125.256 34.8969 125.44 35.6687 125.81C36.4452 126.174 37.0489 126.681 37.4798 127.33C37.9106 127.978 38.1261 128.722 38.1261 129.56C38.1261 130.109 38.0172 130.651 37.7994 131.186C37.5863 131.721 37.2051 132.315 36.6559 132.969C36.1067 133.617 35.3325 134.396 34.3335 135.305L32.2099 137.386V137.486H38.3178V140H27.9485Z" fill="#313131"/>
<path d="M20.896 151.504L20.452 153.58H22.036V154.78H20.2L19.72 157H18.412L18.892 154.78H16.54L16.06 157H14.752L15.232 154.78H13.372V153.58H15.484L15.928 151.504H14.08V150.304H16.18L16.648 148.12H17.956L17.488 150.304H19.84L20.308 148.12H21.616L21.148 150.304H22.744V151.504H20.896ZM19.588 151.504H17.236L16.792 153.58H19.144L19.588 151.504ZM24.0168 155.176V154.144L28.0488 148.36H29.7048V153.988H30.8208V155.176H29.7048V157H28.3608V155.176H24.0168ZM28.4208 149.752L25.5888 153.988H28.4208V149.752ZM33.5024 149.764V152.212H36.3824V153.328H33.5024V155.884H36.7424V157H32.1344V148.648H36.7424V149.764H33.5024ZM43.8873 149.428H39.8673V151.816C40.0353 151.592 40.2833 151.404 40.6113 151.252C40.9473 151.1 41.3033 151.024 41.6793 151.024C42.3513 151.024 42.8953 151.168 43.3113 151.456C43.7353 151.744 44.0353 152.108 44.2113 152.548C44.3953 152.988 44.4873 153.452 44.4873 153.94C44.4873 154.532 44.3713 155.06 44.1393 155.524C43.9153 155.98 43.5753 156.34 43.1193 156.604C42.6713 156.868 42.1193 157 41.4633 157C40.5913 157 39.8913 156.784 39.3633 156.352C38.8353 155.92 38.5193 155.348 38.4153 154.636H39.7473C39.8353 155.012 40.0313 155.312 40.3353 155.536C40.6393 155.752 41.0193 155.86 41.4753 155.86C42.0433 155.86 42.4673 155.688 42.7473 155.344C43.0353 155 43.1793 154.544 43.1793 153.976C43.1793 153.4 43.0353 152.96 42.7473 152.656C42.4593 152.344 42.0353 152.188 41.4753 152.188C41.0833 152.188 40.7513 152.288 40.4793 152.488C40.2153 152.68 40.0233 152.944 39.9033 153.28H38.6073V148.228H43.8873V149.428ZM50.5554 152.716C51.0034 152.796 51.3834 153.032 51.6954 153.424C52.0074 153.816 52.1634 154.26 52.1634 154.756C52.1634 155.18 52.0514 155.564 51.8274 155.908C51.6114 156.244 51.2954 156.512 50.8794 156.712C50.4634 156.904 49.9794 157 49.4274 157H46.0914V148.66H49.2714C49.8394 148.66 50.3274 148.756 50.7354 148.948C51.1434 149.14 51.4514 149.4 51.6594 149.728C51.8674 150.048 51.9714 150.408 51.9714 150.808C51.9714 151.288 51.8434 151.688 51.5874 152.008C51.3314 152.328 50.9874 152.564 50.5554 152.716ZM47.4594 152.164H49.1514C49.5994 152.164 49.9474 152.064 50.1954 151.864C50.4514 151.656 50.5794 151.36 50.5794 150.976C50.5794 150.6 50.4514 150.308 50.1954 150.1C49.9474 149.884 49.5994 149.776 49.1514 149.776H47.4594V152.164ZM49.3074 155.884C49.7714 155.884 50.1354 155.772 50.3994 155.548C50.6634 155.324 50.7954 155.012 50.7954 154.612C50.7954 154.204 50.6554 153.88 50.3754 153.64C50.0954 153.4 49.7234 153.28 49.2594 153.28H47.4594V155.884H49.3074ZM53.302 155.176V154.144L57.334 148.36H58.99V153.988H60.106V155.176H58.99V157H57.646V155.176H53.302ZM57.706 149.752L54.874 153.988H57.706V149.752ZM66.7835 149.308L63.4475 157H62.0675L65.4395 149.452H60.9995V148.288H66.7835V149.308Z" fill="#999999"/>
</g>
</g>
<defs>
<filter id="filter0_d_28_1678" x="-9" y="0" width="141" height="185" filterUnits="userSpaceOnUse" color-interpolation-filters="sRGB">
<feFlood flood-opacity="0" result="BackgroundImageFix"/>
<feColorMatrix in="SourceAlpha" type="matrix" values="0 0 0 0 0 0 0 0 0 0 0 0 0 0 0 0 0 0 127 0" result="hardAlpha"/>
<feMorphology radius="1" operator="dilate" in="SourceAlpha" result="effect1_dropShadow_28_1678"/>
<feOffset dy="4"/>
<feGaussianBlur stdDeviation="4"/>
<feComposite in2="hardAlpha" operator="out"/>
<feColorMatrix type="matrix" values="0 0 0 0 0.416667 0 0 0 0 0.416667 0 0 0 0 0.416667 0 0 0 0.25 0"/>
<feBlend mode="normal" in2="BackgroundImageFix" result="effect1_dropShadow_28_1678"/>
<feBlend mode="normal" in="SourceGraphic" in2="effect1_dropShadow_28_1678" result="shape"/>
</filter>
<filter id="filter1_d_28_1678" x="-8" y="101" width="139" height="85" filterUnits="userSpaceOnUse" color-interpolation-filters="sRGB">
<feFlood flood-opacity="0" result="BackgroundImageFix"/>
<feColorMatrix in="SourceAlpha" type="matrix" values="0 0 0 0 0 0 0 0 0 0 0 0 0 0 0 0 0 0 127 0" result="hardAlpha"/>
<feOffset dy="4"/>
<feGaussianBlur stdDeviation="4"/>
<feComposite in2="hardAlpha" operator="out"/>
<feColorMatrix type="matrix" values="0 0 0 0 0 0 0 0 0 0 0 0 0 0 0 0 0 0 0.25 0"/>
<feBlend mode="normal" in2="BackgroundImageFix" result="effect1_dropShadow_28_1678"/>
<feBlend mode="normal" in="SourceGraphic" in2="effect1_dropShadow_28_1678" result="shape"/>
</filter>
<clipPath id="clip0_28_1678">
<rect y="5" width="123" height="167" rx="8" fill="white"/>
</clipPath>
</defs>
</svg>
